<mxfile host="Electron" agent="Mozilla/5.0 (Windows NT 10.0; Win64; x64) AppleWebKit/537.36 (KHTML, like Gecko) draw.io/26.0.16 Chrome/132.0.6834.196 Electron/34.2.0 Safari/537.36" version="26.0.16">
  <diagram name="Page-1" id="pkXf-up6cnqvc38uH5pA">
    <mxGraphModel dx="1862" dy="626" grid="0" gridSize="10" guides="1" tooltips="1" connect="1" arrows="1" fold="1" page="1" pageScale="1" pageWidth="827" pageHeight="1169" math="0" shadow="0">
      <root>
        <mxCell id="0" />
        <mxCell id="1" parent="0" />
        <mxCell id="RfgUkLckM-XOD2t2Phgp-1" value="teacher" style="rounded=0;whiteSpace=wrap;html=1;" parent="1" vertex="1">
          <mxGeometry x="-413" y="144.38" width="90" height="30" as="geometry" />
        </mxCell>
        <mxCell id="RfgUkLckM-XOD2t2Phgp-3" value="timetable" style="rounded=0;whiteSpace=wrap;html=1;" parent="1" vertex="1">
          <mxGeometry x="809" y="712.25" width="90" height="30" as="geometry" />
        </mxCell>
        <mxCell id="RfgUkLckM-XOD2t2Phgp-4" value="name" style="ellipse;whiteSpace=wrap;html=1;" parent="1" vertex="1">
          <mxGeometry x="-358" y="78" width="56" height="35" as="geometry" />
        </mxCell>
        <mxCell id="RfgUkLckM-XOD2t2Phgp-5" value="&lt;u&gt;id&lt;/u&gt;" style="ellipse;whiteSpace=wrap;html=1;" parent="1" vertex="1">
          <mxGeometry x="-438" y="78" width="47.5" height="34.5" as="geometry" />
        </mxCell>
        <mxCell id="RfgUkLckM-XOD2t2Phgp-8" value="" style="endArrow=none;html=1;rounded=0;" parent="1" source="RfgUkLckM-XOD2t2Phgp-5" target="RfgUkLckM-XOD2t2Phgp-1" edge="1">
          <mxGeometry width="50" height="50" relative="1" as="geometry">
            <mxPoint x="-448" y="159" as="sourcePoint" />
            <mxPoint x="-398" y="159" as="targetPoint" />
          </mxGeometry>
        </mxCell>
        <mxCell id="RfgUkLckM-XOD2t2Phgp-9" value="" style="endArrow=none;html=1;rounded=0;" parent="1" source="RfgUkLckM-XOD2t2Phgp-4" target="RfgUkLckM-XOD2t2Phgp-1" edge="1">
          <mxGeometry width="50" height="50" relative="1" as="geometry">
            <mxPoint x="-329.1176470588234" y="101.64705882352939" as="sourcePoint" />
            <mxPoint x="-364" y="144" as="targetPoint" />
          </mxGeometry>
        </mxCell>
        <mxCell id="RfgUkLckM-XOD2t2Phgp-14" value="&lt;u&gt;id&lt;/u&gt;" style="ellipse;whiteSpace=wrap;html=1;" parent="1" vertex="1">
          <mxGeometry x="767" y="647.25" width="42" height="31" as="geometry" />
        </mxCell>
        <mxCell id="RfgUkLckM-XOD2t2Phgp-19" value="" style="endArrow=none;html=1;rounded=0;" parent="1" source="RfgUkLckM-XOD2t2Phgp-14" target="RfgUkLckM-XOD2t2Phgp-3" edge="1">
          <mxGeometry width="50" height="50" relative="1" as="geometry">
            <mxPoint x="249" y="1077.25" as="sourcePoint" />
            <mxPoint x="251" y="1107.25" as="targetPoint" />
          </mxGeometry>
        </mxCell>
        <mxCell id="bcXNtD89giMIb3jXFdts-1" value="course" style="rounded=0;whiteSpace=wrap;html=1;" parent="1" vertex="1">
          <mxGeometry x="1125" y="198" width="63" height="27" as="geometry" />
        </mxCell>
        <mxCell id="bcXNtD89giMIb3jXFdts-14" value="&lt;u&gt;id&lt;/u&gt;" style="ellipse;whiteSpace=wrap;html=1;" parent="1" vertex="1">
          <mxGeometry x="1193" y="145" width="45" height="34" as="geometry" />
        </mxCell>
        <mxCell id="bcXNtD89giMIb3jXFdts-15" value="" style="endArrow=none;html=1;rounded=0;" parent="1" source="bcXNtD89giMIb3jXFdts-14" target="bcXNtD89giMIb3jXFdts-1" edge="1">
          <mxGeometry width="50" height="50" relative="1" as="geometry">
            <mxPoint x="471" y="284" as="sourcePoint" />
            <mxPoint x="436" y="340" as="targetPoint" />
          </mxGeometry>
        </mxCell>
        <mxCell id="jiQwkbqRdQQgW2EyC9Wi-4" style="edgeStyle=orthogonalEdgeStyle;rounded=0;orthogonalLoop=1;jettySize=auto;html=1;entryX=0;entryY=0.5;entryDx=0;entryDy=0;endArrow=none;startFill=0;exitX=1;exitY=0.5;exitDx=0;exitDy=0;" parent="1" source="DnB-IcPGnR8jbc4Zhwd8-8" target="bcXNtD89giMIb3jXFdts-1" edge="1">
          <mxGeometry relative="1" as="geometry">
            <mxPoint x="1069" y="211" as="sourcePoint" />
          </mxGeometry>
        </mxCell>
        <mxCell id="jiQwkbqRdQQgW2EyC9Wi-11" value="N" style="text;html=1;align=center;verticalAlign=middle;whiteSpace=wrap;rounded=0;" parent="1" vertex="1">
          <mxGeometry x="362.75" y="213" width="22.5" height="25" as="geometry" />
        </mxCell>
        <mxCell id="CwpDE3YvrMXc87gRrV8c-2" value="restriction" style="rounded=0;whiteSpace=wrap;html=1;" parent="1" vertex="1">
          <mxGeometry x="567" y="100" width="90" height="30" as="geometry" />
        </mxCell>
        <mxCell id="CwpDE3YvrMXc87gRrV8c-5" value="" style="endArrow=none;html=1;rounded=0;exitX=0;exitY=0.5;exitDx=0;exitDy=0;edgeStyle=orthogonalEdgeStyle;entryX=1;entryY=0.25;entryDx=0;entryDy=0;" parent="1" source="DnB-IcPGnR8jbc4Zhwd8-31" target="34NMFO7QnpSHcD-VDxKC-9" edge="1">
          <mxGeometry width="50" height="50" relative="1" as="geometry">
            <mxPoint x="354.9999999999998" y="115.005" as="sourcePoint" />
            <mxPoint x="246" y="100" as="targetPoint" />
          </mxGeometry>
        </mxCell>
        <mxCell id="CwpDE3YvrMXc87gRrV8c-6" value="" style="endArrow=none;html=1;rounded=0;entryX=0;entryY=0.5;entryDx=0;entryDy=0;edgeStyle=orthogonalEdgeStyle;exitX=1;exitY=0.5;exitDx=0;exitDy=0;" parent="1" source="DnB-IcPGnR8jbc4Zhwd8-31" target="CwpDE3YvrMXc87gRrV8c-2" edge="1">
          <mxGeometry width="50" height="50" relative="1" as="geometry">
            <mxPoint x="510.4999999999998" y="115.005" as="sourcePoint" />
            <mxPoint x="260" y="100" as="targetPoint" />
          </mxGeometry>
        </mxCell>
        <mxCell id="CwpDE3YvrMXc87gRrV8c-9" value="&lt;u&gt;id&lt;/u&gt;" style="ellipse;whiteSpace=wrap;html=1;" parent="1" vertex="1">
          <mxGeometry x="532" y="35" width="50" height="30" as="geometry" />
        </mxCell>
        <mxCell id="CwpDE3YvrMXc87gRrV8c-10" value="" style="endArrow=none;html=1;rounded=0;" parent="1" source="CwpDE3YvrMXc87gRrV8c-9" target="CwpDE3YvrMXc87gRrV8c-2" edge="1">
          <mxGeometry width="50" height="50" relative="1" as="geometry">
            <mxPoint x="299" y="51" as="sourcePoint" />
            <mxPoint x="349" y="1" as="targetPoint" />
          </mxGeometry>
        </mxCell>
        <mxCell id="CwpDE3YvrMXc87gRrV8c-11" value="name" style="ellipse;whiteSpace=wrap;html=1;" parent="1" vertex="1">
          <mxGeometry x="617.5" y="36.5" width="51" height="31" as="geometry" />
        </mxCell>
        <mxCell id="CwpDE3YvrMXc87gRrV8c-12" value="" style="endArrow=none;html=1;rounded=0;" parent="1" source="CwpDE3YvrMXc87gRrV8c-11" target="CwpDE3YvrMXc87gRrV8c-2" edge="1">
          <mxGeometry width="50" height="50" relative="1" as="geometry">
            <mxPoint x="-17" y="-57" as="sourcePoint" />
            <mxPoint x="65" y="-14" as="targetPoint" />
          </mxGeometry>
        </mxCell>
        <mxCell id="xcnXYv3SaFBbOcyUdqIz-3" value="N" style="text;html=1;align=center;verticalAlign=middle;whiteSpace=wrap;rounded=0;" parent="1" vertex="1">
          <mxGeometry x="330.5" y="113" width="23.5" height="25.5" as="geometry" />
        </mxCell>
        <mxCell id="xcnXYv3SaFBbOcyUdqIz-4" value="N" style="text;html=1;align=center;verticalAlign=middle;whiteSpace=wrap;rounded=0;" parent="1" vertex="1">
          <mxGeometry x="506" y="113" width="22" height="20" as="geometry" />
        </mxCell>
        <mxCell id="xcnXYv3SaFBbOcyUdqIz-6" value="room" style="rounded=0;whiteSpace=wrap;html=1;" parent="1" vertex="1">
          <mxGeometry x="672" y="397.69" width="90" height="30" as="geometry" />
        </mxCell>
        <mxCell id="xcnXYv3SaFBbOcyUdqIz-7" value="&lt;u&gt;id&lt;/u&gt;" style="ellipse;whiteSpace=wrap;html=1;" parent="1" vertex="1">
          <mxGeometry x="747.5" y="335" width="41.5" height="30" as="geometry" />
        </mxCell>
        <mxCell id="xcnXYv3SaFBbOcyUdqIz-8" value="" style="endArrow=none;html=1;rounded=0;" parent="1" source="xcnXYv3SaFBbOcyUdqIz-7" target="xcnXYv3SaFBbOcyUdqIz-6" edge="1">
          <mxGeometry width="50" height="50" relative="1" as="geometry">
            <mxPoint x="572" y="417.69" as="sourcePoint" />
            <mxPoint x="632" y="445.69" as="targetPoint" />
          </mxGeometry>
        </mxCell>
        <mxCell id="xcnXYv3SaFBbOcyUdqIz-10" value="" style="endArrow=none;html=1;rounded=0;exitX=0.5;exitY=1;exitDx=0;exitDy=0;entryX=0;entryY=0.5;entryDx=0;entryDy=0;" parent="1" target="DnB-IcPGnR8jbc4Zhwd8-32" edge="1">
          <mxGeometry width="50" height="50" relative="1" as="geometry">
            <mxPoint x="716" y="427.69" as="sourcePoint" />
            <mxPoint x="652" y="506.375" as="targetPoint" />
            <Array as="points">
              <mxPoint x="640" y="470" />
              <mxPoint x="640" y="512" />
            </Array>
          </mxGeometry>
        </mxCell>
        <mxCell id="xcnXYv3SaFBbOcyUdqIz-16" value="" style="endArrow=none;html=1;rounded=0;entryX=1;entryY=0.5;entryDx=0;entryDy=0;edgeStyle=orthogonalEdgeStyle;exitX=0;exitY=0.5;exitDx=0;exitDy=0;" parent="1" source="DnB-IcPGnR8jbc4Zhwd8-22" target="xcnXYv3SaFBbOcyUdqIz-6" edge="1">
          <mxGeometry width="50" height="50" relative="1" as="geometry">
            <mxPoint x="807.5" y="412.68999999999994" as="sourcePoint" />
            <mxPoint x="282" y="388.19" as="targetPoint" />
          </mxGeometry>
        </mxCell>
        <mxCell id="xcnXYv3SaFBbOcyUdqIz-18" value="N" style="text;html=1;align=center;verticalAlign=middle;whiteSpace=wrap;rounded=0;" parent="1" vertex="1">
          <mxGeometry x="897" y="409" width="25.5" height="28.69" as="geometry" />
        </mxCell>
        <mxCell id="xcnXYv3SaFBbOcyUdqIz-19" value="1" style="text;html=1;align=center;verticalAlign=middle;whiteSpace=wrap;rounded=0;" parent="1" vertex="1">
          <mxGeometry x="790" y="410" width="21" height="27.69" as="geometry" />
        </mxCell>
        <mxCell id="xcnXYv3SaFBbOcyUdqIz-20" value="start_slot" style="ellipse;whiteSpace=wrap;html=1;" parent="1" vertex="1">
          <mxGeometry x="1118" y="386.69" width="70" height="28.31" as="geometry" />
        </mxCell>
        <mxCell id="xcnXYv3SaFBbOcyUdqIz-21" value="duration" style="ellipse;whiteSpace=wrap;html=1;" parent="1" vertex="1">
          <mxGeometry x="1098" y="333" width="58" height="30.31" as="geometry" />
        </mxCell>
        <mxCell id="xcnXYv3SaFBbOcyUdqIz-22" value="weeks" style="ellipse;whiteSpace=wrap;html=1;" parent="1" vertex="1">
          <mxGeometry x="1009" y="321.69" width="61" height="31.31" as="geometry" />
        </mxCell>
        <mxCell id="xcnXYv3SaFBbOcyUdqIz-23" value="" style="endArrow=none;html=1;rounded=0;" parent="1" source="xcnXYv3SaFBbOcyUdqIz-22" target="DnB-IcPGnR8jbc4Zhwd8-23" edge="1">
          <mxGeometry width="50" height="50" relative="1" as="geometry">
            <mxPoint x="892" y="207.69" as="sourcePoint" />
            <mxPoint x="1033.6549295774648" y="395.18999999999994" as="targetPoint" />
          </mxGeometry>
        </mxCell>
        <mxCell id="xcnXYv3SaFBbOcyUdqIz-24" value="" style="endArrow=none;html=1;rounded=0;" parent="1" source="xcnXYv3SaFBbOcyUdqIz-21" target="DnB-IcPGnR8jbc4Zhwd8-23" edge="1">
          <mxGeometry width="50" height="50" relative="1" as="geometry">
            <mxPoint x="1032" y="307.69" as="sourcePoint" />
            <mxPoint x="1083.7777777777778" y="395.18999999999994" as="targetPoint" />
          </mxGeometry>
        </mxCell>
        <mxCell id="xcnXYv3SaFBbOcyUdqIz-25" value="" style="endArrow=none;html=1;rounded=0;" parent="1" source="xcnXYv3SaFBbOcyUdqIz-20" target="DnB-IcPGnR8jbc4Zhwd8-23" edge="1">
          <mxGeometry width="50" height="50" relative="1" as="geometry">
            <mxPoint x="986" y="356.69" as="sourcePoint" />
            <mxPoint x="1102" y="419.9816666666667" as="targetPoint" />
          </mxGeometry>
        </mxCell>
        <mxCell id="xcnXYv3SaFBbOcyUdqIz-26" value="N" style="text;html=1;align=center;verticalAlign=middle;whiteSpace=wrap;rounded=0;" parent="1" vertex="1">
          <mxGeometry x="628" y="511" width="20" height="22.5" as="geometry" />
        </mxCell>
        <mxCell id="xcnXYv3SaFBbOcyUdqIz-27" value="N" style="text;html=1;align=center;verticalAlign=middle;whiteSpace=wrap;rounded=0;" parent="1" vertex="1">
          <mxGeometry x="773.5" y="511" width="16.5" height="23.5" as="geometry" />
        </mxCell>
        <mxCell id="xcnXYv3SaFBbOcyUdqIz-33" style="edgeStyle=orthogonalEdgeStyle;rounded=0;orthogonalLoop=1;jettySize=auto;html=1;endArrow=none;startFill=0;entryX=0;entryY=0.5;entryDx=0;entryDy=0;exitX=1;exitY=0.75;exitDx=0;exitDy=0;shape=link;" parent="1" source="34NMFO7QnpSHcD-VDxKC-9" target="DnB-IcPGnR8jbc4Zhwd8-5" edge="1">
          <mxGeometry relative="1" as="geometry">
            <mxPoint x="290" y="156" as="sourcePoint" />
            <mxPoint x="352.0000000000002" y="213.005" as="targetPoint" />
            <Array as="points">
              <mxPoint x="298" y="170" />
              <mxPoint x="298" y="213" />
            </Array>
          </mxGeometry>
        </mxCell>
        <mxCell id="xcnXYv3SaFBbOcyUdqIz-34" value="1" style="text;html=1;align=center;verticalAlign=middle;whiteSpace=wrap;rounded=0;" parent="1" vertex="1">
          <mxGeometry x="477" y="210" width="20" height="26" as="geometry" />
        </mxCell>
        <mxCell id="xcnXYv3SaFBbOcyUdqIz-41" value="creation_date" style="ellipse;whiteSpace=wrap;html=1;" parent="1" vertex="1">
          <mxGeometry x="832.5" y="638.25" width="90" height="40" as="geometry" />
        </mxCell>
        <mxCell id="xcnXYv3SaFBbOcyUdqIz-42" value="" style="endArrow=none;html=1;rounded=0;" parent="1" source="RfgUkLckM-XOD2t2Phgp-3" target="xcnXYv3SaFBbOcyUdqIz-41" edge="1">
          <mxGeometry width="50" height="50" relative="1" as="geometry">
            <mxPoint x="229" y="1127.25" as="sourcePoint" />
            <mxPoint x="162" y="1170.25" as="targetPoint" />
          </mxGeometry>
        </mxCell>
        <mxCell id="xcnXYv3SaFBbOcyUdqIz-44" value="" style="endArrow=none;html=1;rounded=0;" parent="1" source="DnB-IcPGnR8jbc4Zhwd8-24" target="DnB-IcPGnR8jbc4Zhwd8-23" edge="1">
          <mxGeometry width="50" height="50" relative="1" as="geometry">
            <mxPoint x="978.8827333430377" y="355.0542242574222" as="sourcePoint" />
            <mxPoint x="1013.1842105263158" y="395.18999999999994" as="targetPoint" />
          </mxGeometry>
        </mxCell>
        <mxCell id="xcnXYv3SaFBbOcyUdqIz-53" value="N" style="text;html=1;align=center;verticalAlign=middle;whiteSpace=wrap;rounded=0;" parent="1" vertex="1">
          <mxGeometry x="606" y="729" width="25" height="24.25" as="geometry" />
        </mxCell>
        <mxCell id="xcnXYv3SaFBbOcyUdqIz-54" value="1" style="text;html=1;align=center;verticalAlign=middle;whiteSpace=wrap;rounded=0;" parent="1" vertex="1">
          <mxGeometry x="719" y="725.25" width="23" height="25.75" as="geometry" />
        </mxCell>
        <mxCell id="xcnXYv3SaFBbOcyUdqIz-56" value="start_slot" style="ellipse;whiteSpace=wrap;html=1;" parent="1" vertex="1">
          <mxGeometry x="-561" y="297.69" width="75" height="31" as="geometry" />
        </mxCell>
        <mxCell id="xcnXYv3SaFBbOcyUdqIz-57" value="duration" style="ellipse;whiteSpace=wrap;html=1;" parent="1" vertex="1">
          <mxGeometry x="-663" y="288.69" width="75" height="33" as="geometry" />
        </mxCell>
        <mxCell id="xcnXYv3SaFBbOcyUdqIz-58" value="weeks" style="ellipse;whiteSpace=wrap;html=1;" parent="1" vertex="1">
          <mxGeometry x="-455.5" y="296.69" width="65" height="32" as="geometry" />
        </mxCell>
        <mxCell id="xcnXYv3SaFBbOcyUdqIz-59" value="" style="endArrow=none;html=1;rounded=0;" parent="1" source="xcnXYv3SaFBbOcyUdqIz-58" target="DnB-IcPGnR8jbc4Zhwd8-19" edge="1">
          <mxGeometry width="50" height="50" relative="1" as="geometry">
            <mxPoint x="-632.5" y="47.75" as="sourcePoint" />
            <mxPoint x="-492.65094339622647" y="267.75" as="targetPoint" />
          </mxGeometry>
        </mxCell>
        <mxCell id="xcnXYv3SaFBbOcyUdqIz-60" value="" style="endArrow=none;html=1;rounded=0;" parent="1" source="xcnXYv3SaFBbOcyUdqIz-57" target="DnB-IcPGnR8jbc4Zhwd8-19" edge="1">
          <mxGeometry width="50" height="50" relative="1" as="geometry">
            <mxPoint x="-492.5" y="147.75" as="sourcePoint" />
            <mxPoint x="-538.6805054151625" y="267.75" as="targetPoint" />
          </mxGeometry>
        </mxCell>
        <mxCell id="xcnXYv3SaFBbOcyUdqIz-61" value="" style="endArrow=none;html=1;rounded=0;" parent="1" source="xcnXYv3SaFBbOcyUdqIz-56" target="DnB-IcPGnR8jbc4Zhwd8-19" edge="1">
          <mxGeometry width="50" height="50" relative="1" as="geometry">
            <mxPoint x="-523.4053102509743" y="322.21593075292253" as="sourcePoint" />
            <mxPoint x="-511.3116710875331" y="267.75" as="targetPoint" />
          </mxGeometry>
        </mxCell>
        <mxCell id="xcnXYv3SaFBbOcyUdqIz-63" value="" style="endArrow=none;html=1;rounded=0;" parent="1" source="DnB-IcPGnR8jbc4Zhwd8-20" target="DnB-IcPGnR8jbc4Zhwd8-19" edge="1">
          <mxGeometry width="50" height="50" relative="1" as="geometry">
            <mxPoint x="-646.0606817329208" y="254.8385155307808" as="sourcePoint" />
            <mxPoint x="-581" y="253.0322580645161" as="targetPoint" />
          </mxGeometry>
        </mxCell>
        <mxCell id="xcnXYv3SaFBbOcyUdqIz-65" style="edgeStyle=orthogonalEdgeStyle;rounded=0;orthogonalLoop=1;jettySize=auto;html=1;endArrow=none;startFill=0;exitX=0;exitY=0.5;exitDx=0;exitDy=0;entryX=1;entryY=0.5;entryDx=0;entryDy=0;" parent="1" source="RfgUkLckM-XOD2t2Phgp-1" target="DnB-IcPGnR8jbc4Zhwd8-17" edge="1">
          <mxGeometry relative="1" as="geometry">
            <mxPoint x="-181" y="384" as="sourcePoint" />
            <mxPoint x="-455" y="159.38" as="targetPoint" />
          </mxGeometry>
        </mxCell>
        <mxCell id="xcnXYv3SaFBbOcyUdqIz-67" value="1" style="text;html=1;align=center;verticalAlign=middle;whiteSpace=wrap;rounded=0;" parent="1" vertex="1">
          <mxGeometry x="-463" y="155" width="30" height="30" as="geometry" />
        </mxCell>
        <mxCell id="xcnXYv3SaFBbOcyUdqIz-68" value="N" style="text;html=1;align=center;verticalAlign=middle;whiteSpace=wrap;rounded=0;" parent="1" vertex="1">
          <mxGeometry x="-538.5" y="186" width="30" height="30" as="geometry" />
        </mxCell>
        <mxCell id="loU6qst1gXyBOw2LhkFR-6" style="edgeStyle=orthogonalEdgeStyle;rounded=0;orthogonalLoop=1;jettySize=auto;html=1;endArrow=none;startFill=0;entryX=0;entryY=0.5;entryDx=0;entryDy=0;exitX=1;exitY=0.5;exitDx=0;exitDy=0;" parent="1" source="DnB-IcPGnR8jbc4Zhwd8-7" target="DnB-IcPGnR8jbc4Zhwd8-9" edge="1">
          <mxGeometry relative="1" as="geometry">
            <mxPoint x="804" y="212" as="sourcePoint" />
            <mxPoint x="851.5" y="212" as="targetPoint" />
          </mxGeometry>
        </mxCell>
        <mxCell id="loU6qst1gXyBOw2LhkFR-9" style="edgeStyle=orthogonalEdgeStyle;rounded=0;orthogonalLoop=1;jettySize=auto;html=1;endArrow=none;startFill=0;exitX=1;exitY=0.5;exitDx=0;exitDy=0;entryX=0;entryY=0.5;entryDx=0;entryDy=0;" parent="1" source="DnB-IcPGnR8jbc4Zhwd8-5" target="DnB-IcPGnR8jbc4Zhwd8-6" edge="1">
          <mxGeometry relative="1" as="geometry">
            <mxPoint x="508" y="197" as="sourcePoint" />
            <mxPoint x="534" y="190" as="targetPoint" />
          </mxGeometry>
        </mxCell>
        <mxCell id="loU6qst1gXyBOw2LhkFR-10" value="N" style="text;html=1;align=center;verticalAlign=middle;whiteSpace=wrap;rounded=0;" parent="1" vertex="1">
          <mxGeometry x="687" y="210.5" width="26" height="27" as="geometry" />
        </mxCell>
        <mxCell id="loU6qst1gXyBOw2LhkFR-11" value="1" style="text;html=1;align=center;verticalAlign=middle;whiteSpace=wrap;rounded=0;" parent="1" vertex="1">
          <mxGeometry x="799" y="210" width="22" height="27" as="geometry" />
        </mxCell>
        <mxCell id="loU6qst1gXyBOw2LhkFR-12" value="N" style="text;html=1;align=center;verticalAlign=middle;whiteSpace=wrap;rounded=0;" parent="1" vertex="1">
          <mxGeometry x="954" y="208" width="27" height="29" as="geometry" />
        </mxCell>
        <mxCell id="loU6qst1gXyBOw2LhkFR-13" value="1" style="text;html=1;align=center;verticalAlign=middle;whiteSpace=wrap;rounded=0;" parent="1" vertex="1">
          <mxGeometry x="1066" y="206" width="23" height="30" as="geometry" />
        </mxCell>
        <mxCell id="loU6qst1gXyBOw2LhkFR-14" value="optimization_parameters" style="rounded=0;whiteSpace=wrap;html=1;" parent="1" vertex="1">
          <mxGeometry x="-675" y="573" width="141" height="30" as="geometry" />
        </mxCell>
        <mxCell id="loU6qst1gXyBOw2LhkFR-15" value="time_weight" style="ellipse;whiteSpace=wrap;html=1;" parent="1" vertex="1">
          <mxGeometry x="-762" y="506" width="91" height="35" as="geometry" />
        </mxCell>
        <mxCell id="loU6qst1gXyBOw2LhkFR-16" value="" style="endArrow=none;html=1;rounded=0;" parent="1" source="loU6qst1gXyBOw2LhkFR-15" target="loU6qst1gXyBOw2LhkFR-14" edge="1">
          <mxGeometry width="50" height="50" relative="1" as="geometry">
            <mxPoint x="-727" y="205" as="sourcePoint" />
            <mxPoint x="-641" y="248" as="targetPoint" />
          </mxGeometry>
        </mxCell>
        <mxCell id="loU6qst1gXyBOw2LhkFR-17" value="room_weight" style="ellipse;whiteSpace=wrap;html=1;" parent="1" vertex="1">
          <mxGeometry x="-647.5" y="503" width="86" height="34" as="geometry" />
        </mxCell>
        <mxCell id="loU6qst1gXyBOw2LhkFR-19" value="distribution_weight" style="ellipse;whiteSpace=wrap;html=1;" parent="1" vertex="1">
          <mxGeometry x="-547" y="508" width="114" height="36" as="geometry" />
        </mxCell>
        <mxCell id="loU6qst1gXyBOw2LhkFR-20" value="" style="endArrow=none;html=1;rounded=0;entryX=0.5;entryY=0;entryDx=0;entryDy=0;" parent="1" source="loU6qst1gXyBOw2LhkFR-17" target="loU6qst1gXyBOw2LhkFR-14" edge="1">
          <mxGeometry width="50" height="50" relative="1" as="geometry">
            <mxPoint x="-669" y="550" as="sourcePoint" />
            <mxPoint x="-618" y="583" as="targetPoint" />
          </mxGeometry>
        </mxCell>
        <mxCell id="loU6qst1gXyBOw2LhkFR-21" value="" style="endArrow=none;html=1;rounded=0;" parent="1" source="loU6qst1gXyBOw2LhkFR-19" target="loU6qst1gXyBOw2LhkFR-14" edge="1">
          <mxGeometry width="50" height="50" relative="1" as="geometry">
            <mxPoint x="-593" y="553" as="sourcePoint" />
            <mxPoint x="-594" y="583" as="targetPoint" />
          </mxGeometry>
        </mxCell>
        <mxCell id="loU6qst1gXyBOw2LhkFR-23" value="" style="endArrow=none;html=1;rounded=0;" parent="1" source="DnB-IcPGnR8jbc4Zhwd8-27" target="DnB-IcPGnR8jbc4Zhwd8-26" edge="1">
          <mxGeometry width="50" height="50" relative="1" as="geometry">
            <mxPoint x="327.0286445718773" y="677.6529350869926" as="sourcePoint" />
            <mxPoint x="410.50536480686674" y="712.25" as="targetPoint" />
          </mxGeometry>
        </mxCell>
        <mxCell id="loU6qst1gXyBOw2LhkFR-24" value="days" style="ellipse;whiteSpace=wrap;html=1;" parent="1" vertex="1">
          <mxGeometry x="348.5" y="623.5" width="46.5" height="33" as="geometry" />
        </mxCell>
        <mxCell id="loU6qst1gXyBOw2LhkFR-25" value="weeks" style="ellipse;whiteSpace=wrap;html=1;" parent="1" vertex="1">
          <mxGeometry x="464" y="601.5" width="51" height="36.5" as="geometry" />
        </mxCell>
        <mxCell id="loU6qst1gXyBOw2LhkFR-26" value="start_slot" style="ellipse;whiteSpace=wrap;html=1;" parent="1" vertex="1">
          <mxGeometry x="520" y="623" width="69" height="34" as="geometry" />
        </mxCell>
        <mxCell id="loU6qst1gXyBOw2LhkFR-27" value="timetable_configuration" style="rounded=0;whiteSpace=wrap;html=1;" parent="1" vertex="1">
          <mxGeometry x="-685.5" y="731" width="141" height="30" as="geometry" />
        </mxCell>
        <mxCell id="loU6qst1gXyBOw2LhkFR-28" value="slots_per_day" style="ellipse;whiteSpace=wrap;html=1;" parent="1" vertex="1">
          <mxGeometry x="-534.5" y="668" width="93" height="40" as="geometry" />
        </mxCell>
        <mxCell id="loU6qst1gXyBOw2LhkFR-30" value="" style="endArrow=none;html=1;rounded=0;" parent="1" source="loU6qst1gXyBOw2LhkFR-28" target="loU6qst1gXyBOw2LhkFR-27" edge="1">
          <mxGeometry width="50" height="50" relative="1" as="geometry">
            <mxPoint x="-673.5" y="561" as="sourcePoint" />
            <mxPoint x="-622.5" y="594" as="targetPoint" />
          </mxGeometry>
        </mxCell>
        <mxCell id="loU6qst1gXyBOw2LhkFR-31" value="" style="endArrow=none;html=1;rounded=0;" parent="1" source="loU6qst1gXyBOw2LhkFR-24" target="DnB-IcPGnR8jbc4Zhwd8-26" edge="1">
          <mxGeometry width="50" height="50" relative="1" as="geometry">
            <mxPoint x="407" y="687.25" as="sourcePoint" />
            <mxPoint x="434.2677304964541" y="712.25" as="targetPoint" />
          </mxGeometry>
        </mxCell>
        <mxCell id="loU6qst1gXyBOw2LhkFR-32" value="" style="endArrow=none;html=1;rounded=0;" parent="1" source="loU6qst1gXyBOw2LhkFR-25" target="DnB-IcPGnR8jbc4Zhwd8-26" edge="1">
          <mxGeometry width="50" height="50" relative="1" as="geometry">
            <mxPoint x="468" y="680.25" as="sourcePoint" />
            <mxPoint x="452.71511627906966" y="712.25" as="targetPoint" />
          </mxGeometry>
        </mxCell>
        <mxCell id="loU6qst1gXyBOw2LhkFR-33" value="" style="endArrow=none;html=1;rounded=0;" parent="1" source="loU6qst1gXyBOw2LhkFR-26" target="DnB-IcPGnR8jbc4Zhwd8-26" edge="1">
          <mxGeometry width="50" height="50" relative="1" as="geometry">
            <mxPoint x="548" y="682.25" as="sourcePoint" />
            <mxPoint x="465.2743553008597" y="712.25" as="targetPoint" />
          </mxGeometry>
        </mxCell>
        <mxCell id="loU6qst1gXyBOw2LhkFR-34" value="number_days" style="ellipse;whiteSpace=wrap;html=1;" parent="1" vertex="1">
          <mxGeometry x="-764.5" y="663" width="93" height="40" as="geometry" />
        </mxCell>
        <mxCell id="loU6qst1gXyBOw2LhkFR-35" value="" style="endArrow=none;html=1;rounded=0;" parent="1" source="loU6qst1gXyBOw2LhkFR-34" target="loU6qst1gXyBOw2LhkFR-27" edge="1">
          <mxGeometry width="50" height="50" relative="1" as="geometry">
            <mxPoint x="-665.5" y="710" as="sourcePoint" />
            <mxPoint x="-624.5" y="741" as="targetPoint" />
          </mxGeometry>
        </mxCell>
        <mxCell id="loU6qst1gXyBOw2LhkFR-36" value="number_weeks" style="ellipse;whiteSpace=wrap;html=1;" parent="1" vertex="1">
          <mxGeometry x="-660.5" y="653" width="116" height="40" as="geometry" />
        </mxCell>
        <mxCell id="loU6qst1gXyBOw2LhkFR-37" value="" style="endArrow=none;html=1;rounded=0;" parent="1" source="loU6qst1gXyBOw2LhkFR-36" target="loU6qst1gXyBOw2LhkFR-27" edge="1">
          <mxGeometry width="50" height="50" relative="1" as="geometry">
            <mxPoint x="-586.5" y="696" as="sourcePoint" />
            <mxPoint x="-592.5" y="748" as="targetPoint" />
          </mxGeometry>
        </mxCell>
        <mxCell id="loU6qst1gXyBOw2LhkFR-43" style="edgeStyle=orthogonalEdgeStyle;rounded=0;orthogonalLoop=1;jettySize=auto;html=1;endArrow=none;startFill=0;entryX=1;entryY=0.5;entryDx=0;entryDy=0;exitX=0.25;exitY=1;exitDx=0;exitDy=0;" parent="1" source="34NMFO7QnpSHcD-VDxKC-9" target="DnB-IcPGnR8jbc4Zhwd8-34" edge="1">
          <mxGeometry relative="1" as="geometry">
            <mxPoint x="146" y="184" as="sourcePoint" />
            <mxPoint x="125.5" y="477" as="targetPoint" />
          </mxGeometry>
        </mxCell>
        <mxCell id="loU6qst1gXyBOw2LhkFR-44" style="edgeStyle=orthogonalEdgeStyle;rounded=0;orthogonalLoop=1;jettySize=auto;html=1;endArrow=none;startFill=0;entryX=0;entryY=0.5;entryDx=0;entryDy=0;exitX=0.75;exitY=1;exitDx=0;exitDy=0;" parent="1" source="34NMFO7QnpSHcD-VDxKC-9" target="DnB-IcPGnR8jbc4Zhwd8-33" edge="1">
          <mxGeometry relative="1" as="geometry">
            <mxPoint x="193" y="190" as="sourcePoint" />
            <mxPoint x="276" y="406.0049999999999" as="targetPoint" />
          </mxGeometry>
        </mxCell>
        <mxCell id="loU6qst1gXyBOw2LhkFR-47" value="1" style="text;html=1;align=center;verticalAlign=middle;whiteSpace=wrap;rounded=0;" parent="1" vertex="1">
          <mxGeometry x="118" y="410" width="20" height="19.5" as="geometry" />
        </mxCell>
        <mxCell id="loU6qst1gXyBOw2LhkFR-48" value="N" style="text;html=1;align=center;verticalAlign=middle;whiteSpace=wrap;rounded=0;" parent="1" vertex="1">
          <mxGeometry x="18" y="410" width="23" height="21.5" as="geometry" />
        </mxCell>
        <mxCell id="loU6qst1gXyBOw2LhkFR-51" value="penalty" style="ellipse;whiteSpace=wrap;html=1;" parent="1" vertex="1">
          <mxGeometry x="309.25" y="310" width="66" height="33" as="geometry" />
        </mxCell>
        <mxCell id="loU6qst1gXyBOw2LhkFR-52" value="" style="endArrow=none;html=1;rounded=0;" parent="1" source="loU6qst1gXyBOw2LhkFR-51" target="DnB-IcPGnR8jbc4Zhwd8-33" edge="1">
          <mxGeometry width="50" height="50" relative="1" as="geometry">
            <mxPoint x="-148.5" y="143" as="sourcePoint" />
            <mxPoint x="344.15221756595656" y="377.6760225326949" as="targetPoint" />
          </mxGeometry>
        </mxCell>
        <mxCell id="loU6qst1gXyBOw2LhkFR-53" value="days" style="ellipse;whiteSpace=wrap;html=1;" parent="1" vertex="1">
          <mxGeometry x="-238" y="385.69" width="44" height="32" as="geometry" />
        </mxCell>
        <mxCell id="loU6qst1gXyBOw2LhkFR-54" value="start_slot" style="ellipse;whiteSpace=wrap;html=1;" parent="1" vertex="1">
          <mxGeometry x="-203" y="316.5" width="64" height="40" as="geometry" />
        </mxCell>
        <mxCell id="loU6qst1gXyBOw2LhkFR-55" value="duration" style="ellipse;whiteSpace=wrap;html=1;" parent="1" vertex="1">
          <mxGeometry x="-114.44" y="311.5" width="66.44" height="30" as="geometry" />
        </mxCell>
        <mxCell id="loU6qst1gXyBOw2LhkFR-56" value="weeks" style="ellipse;whiteSpace=wrap;html=1;" parent="1" vertex="1">
          <mxGeometry x="-112" y="488" width="66" height="31" as="geometry" />
        </mxCell>
        <mxCell id="loU6qst1gXyBOw2LhkFR-57" value="penalty" style="ellipse;whiteSpace=wrap;html=1;" parent="1" vertex="1">
          <mxGeometry x="-220" y="461" width="63" height="31" as="geometry" />
        </mxCell>
        <mxCell id="loU6qst1gXyBOw2LhkFR-58" value="" style="endArrow=none;html=1;rounded=0;" parent="1" source="loU6qst1gXyBOw2LhkFR-53" target="DnB-IcPGnR8jbc4Zhwd8-30" edge="1">
          <mxGeometry width="50" height="50" relative="1" as="geometry">
            <mxPoint x="-76" y="258.5" as="sourcePoint" />
            <mxPoint x="-144.51494565217376" y="399" as="targetPoint" />
          </mxGeometry>
        </mxCell>
        <mxCell id="loU6qst1gXyBOw2LhkFR-59" value="" style="endArrow=none;html=1;rounded=0;" parent="1" source="loU6qst1gXyBOw2LhkFR-54" target="DnB-IcPGnR8jbc4Zhwd8-30" edge="1">
          <mxGeometry width="50" height="50" relative="1" as="geometry">
            <mxPoint x="-201" y="388.5" as="sourcePoint" />
            <mxPoint x="-102.30716463414615" y="399" as="targetPoint" />
          </mxGeometry>
        </mxCell>
        <mxCell id="loU6qst1gXyBOw2LhkFR-60" value="" style="endArrow=none;html=1;rounded=0;entryX=0.5;entryY=0;entryDx=0;entryDy=0;" parent="1" source="loU6qst1gXyBOw2LhkFR-55" target="DnB-IcPGnR8jbc4Zhwd8-30" edge="1">
          <mxGeometry width="50" height="50" relative="1" as="geometry">
            <mxPoint x="-116" y="389.5" as="sourcePoint" />
            <mxPoint x="-80.94812499999989" y="399" as="targetPoint" />
          </mxGeometry>
        </mxCell>
        <mxCell id="loU6qst1gXyBOw2LhkFR-61" value="" style="endArrow=none;html=1;rounded=0;" parent="1" source="loU6qst1gXyBOw2LhkFR-56" target="DnB-IcPGnR8jbc4Zhwd8-30" edge="1">
          <mxGeometry width="50" height="50" relative="1" as="geometry">
            <mxPoint x="-57" y="389.5" as="sourcePoint" />
            <mxPoint x="-58.78887195121956" y="399" as="targetPoint" />
          </mxGeometry>
        </mxCell>
        <mxCell id="loU6qst1gXyBOw2LhkFR-62" value="" style="endArrow=none;html=1;rounded=0;" parent="1" source="loU6qst1gXyBOw2LhkFR-57" target="DnB-IcPGnR8jbc4Zhwd8-30" edge="1">
          <mxGeometry width="50" height="50" relative="1" as="geometry">
            <mxPoint x="9" y="386.5" as="sourcePoint" />
            <mxPoint x="-149" y="422.9749351771824" as="targetPoint" />
          </mxGeometry>
        </mxCell>
        <mxCell id="loU6qst1gXyBOw2LhkFR-65" style="edgeStyle=orthogonalEdgeStyle;rounded=0;orthogonalLoop=1;jettySize=auto;html=1;endArrow=none;startFill=0;entryX=1;entryY=0.5;entryDx=0;entryDy=0;exitX=0;exitY=0.25;exitDx=0;exitDy=0;" parent="1" source="xcnXYv3SaFBbOcyUdqIz-6" target="DnB-IcPGnR8jbc4Zhwd8-33" edge="1">
          <mxGeometry relative="1" as="geometry">
            <mxPoint x="540" y="407.69" as="sourcePoint" />
            <mxPoint x="399.25" y="406.0049999999999" as="targetPoint" />
          </mxGeometry>
        </mxCell>
        <mxCell id="loU6qst1gXyBOw2LhkFR-66" value="has" style="shape=rhombus;perimeter=rhombusPerimeter;whiteSpace=wrap;html=1;align=center;" parent="1" vertex="1">
          <mxGeometry x="402" y="474.69000000000005" width="90" height="50" as="geometry" />
        </mxCell>
        <mxCell id="loU6qst1gXyBOw2LhkFR-67" style="edgeStyle=orthogonalEdgeStyle;rounded=0;orthogonalLoop=1;jettySize=auto;html=1;endArrow=none;startFill=0;exitX=0;exitY=0.75;exitDx=0;exitDy=0;entryX=0.5;entryY=0;entryDx=0;entryDy=0;" parent="1" source="xcnXYv3SaFBbOcyUdqIz-6" target="loU6qst1gXyBOw2LhkFR-66" edge="1">
          <mxGeometry relative="1" as="geometry">
            <mxPoint x="682" y="430.69" as="sourcePoint" />
            <mxPoint x="328" y="430.69" as="targetPoint" />
          </mxGeometry>
        </mxCell>
        <mxCell id="loU6qst1gXyBOw2LhkFR-69" value="N" style="text;html=1;align=center;verticalAlign=middle;whiteSpace=wrap;rounded=0;" parent="1" vertex="1">
          <mxGeometry x="275" y="408" width="21" height="18" as="geometry" />
        </mxCell>
        <mxCell id="loU6qst1gXyBOw2LhkFR-70" value="N" style="text;html=1;align=center;verticalAlign=middle;whiteSpace=wrap;rounded=0;" parent="1" vertex="1">
          <mxGeometry x="397" y="407" width="25" height="19" as="geometry" />
        </mxCell>
        <mxCell id="loU6qst1gXyBOw2LhkFR-72" value="1" style="text;html=1;align=center;verticalAlign=middle;whiteSpace=wrap;rounded=0;" parent="1" vertex="1">
          <mxGeometry x="445.75" y="455" width="27.25" height="24" as="geometry" />
        </mxCell>
        <mxCell id="loU6qst1gXyBOw2LhkFR-73" value="N" style="text;html=1;align=center;verticalAlign=middle;whiteSpace=wrap;rounded=0;movable=1;resizable=1;rotatable=1;deletable=1;editable=1;locked=0;connectable=1;" parent="1" vertex="1">
          <mxGeometry x="453.75" y="524.69" width="22" height="19" as="geometry" />
        </mxCell>
        <mxCell id="loU6qst1gXyBOw2LhkFR-74" value="penalty" style="ellipse;whiteSpace=wrap;html=1;" parent="1" vertex="1">
          <mxGeometry x="312.5" y="20" width="68" height="31" as="geometry" />
        </mxCell>
        <mxCell id="loU6qst1gXyBOw2LhkFR-75" value="required" style="ellipse;whiteSpace=wrap;html=1;" parent="1" vertex="1">
          <mxGeometry x="402" y="12" width="67" height="30" as="geometry" />
        </mxCell>
        <mxCell id="loU6qst1gXyBOw2LhkFR-76" value="" style="endArrow=none;html=1;rounded=0;" parent="1" source="loU6qst1gXyBOw2LhkFR-74" target="DnB-IcPGnR8jbc4Zhwd8-31" edge="1">
          <mxGeometry width="50" height="50" relative="1" as="geometry">
            <mxPoint x="157" y="104" as="sourcePoint" />
            <mxPoint x="405.636876133103" y="90.01220100825935" as="targetPoint" />
          </mxGeometry>
        </mxCell>
        <mxCell id="loU6qst1gXyBOw2LhkFR-77" value="" style="endArrow=none;html=1;rounded=0;" parent="1" source="loU6qst1gXyBOw2LhkFR-75" target="DnB-IcPGnR8jbc4Zhwd8-31" edge="1">
          <mxGeometry width="50" height="50" relative="1" as="geometry">
            <mxPoint x="359" y="62" as="sourcePoint" />
            <mxPoint x="433.9309368397303" y="77.21287397073513" as="targetPoint" />
          </mxGeometry>
        </mxCell>
        <mxCell id="loU6qst1gXyBOw2LhkFR-81" value="" style="endArrow=none;html=1;rounded=0;" parent="1" source="DnB-IcPGnR8jbc4Zhwd8-6" target="DnB-IcPGnR8jbc4Zhwd8-11" edge="1">
          <mxGeometry width="50" height="50" relative="1" as="geometry">
            <mxPoint x="633.0739932842685" y="198" as="sourcePoint" />
            <mxPoint x="661.6178607612505" y="174.56624251053182" as="targetPoint" />
          </mxGeometry>
        </mxCell>
        <mxCell id="loU6qst1gXyBOw2LhkFR-82" value="" style="endArrow=none;html=1;rounded=0;" parent="1" source="DnB-IcPGnR8jbc4Zhwd8-12" edge="1">
          <mxGeometry width="50" height="50" relative="1" as="geometry">
            <mxPoint x="623" y="236" as="sourcePoint" />
            <mxPoint x="880.8880597014927" y="198" as="targetPoint" />
          </mxGeometry>
        </mxCell>
        <mxCell id="loU6qst1gXyBOw2LhkFR-83" value="has" style="shape=rhombus;perimeter=rhombusPerimeter;whiteSpace=wrap;html=1;align=center;" parent="1" vertex="1">
          <mxGeometry x="221" y="702.25" width="90" height="50" as="geometry" />
        </mxCell>
        <mxCell id="loU6qst1gXyBOw2LhkFR-85" style="edgeStyle=orthogonalEdgeStyle;rounded=0;orthogonalLoop=1;jettySize=auto;html=1;endArrow=none;startFill=0;exitX=0;exitY=0.5;exitDx=0;exitDy=0;entryX=0.5;entryY=1;entryDx=0;entryDy=0;" parent="1" source="loU6qst1gXyBOw2LhkFR-83" target="34NMFO7QnpSHcD-VDxKC-9" edge="1">
          <mxGeometry relative="1" as="geometry">
            <mxPoint x="542" y="579" as="sourcePoint" />
            <mxPoint x="170" y="193" as="targetPoint" />
          </mxGeometry>
        </mxCell>
        <mxCell id="loU6qst1gXyBOw2LhkFR-86" value="1" style="text;html=1;align=center;verticalAlign=middle;whiteSpace=wrap;rounded=0;" parent="1" vertex="1">
          <mxGeometry x="198" y="725.75" width="24" height="26.25" as="geometry" />
        </mxCell>
        <mxCell id="loU6qst1gXyBOw2LhkFR-87" value="N" style="text;html=1;align=center;verticalAlign=middle;whiteSpace=wrap;rounded=0;" parent="1" vertex="1">
          <mxGeometry x="306.5" y="726" width="27.5" height="28.25" as="geometry" />
        </mxCell>
        <mxCell id="H9UFSPzHqqpShPV12_aN-1" value="distance" style="ellipse;whiteSpace=wrap;html=1;" parent="1" vertex="1">
          <mxGeometry x="631" y="565.19" width="75.87" height="36.31" as="geometry" />
        </mxCell>
        <mxCell id="H9UFSPzHqqpShPV12_aN-2" value="" style="endArrow=none;html=1;rounded=0;" parent="1" source="H9UFSPzHqqpShPV12_aN-1" target="DnB-IcPGnR8jbc4Zhwd8-32" edge="1">
          <mxGeometry width="50" height="50" relative="1" as="geometry">
            <mxPoint x="341" y="336.69" as="sourcePoint" />
            <mxPoint x="713.6269724824651" y="538.0589858319369" as="targetPoint" />
          </mxGeometry>
        </mxCell>
        <mxCell id="34NMFO7QnpSHcD-VDxKC-2" value="teacher_class" style="shape=rhombus;perimeter=rhombusPerimeter;whiteSpace=wrap;html=1;align=center;" parent="1" vertex="1">
          <mxGeometry x="-168" y="129.25" width="137" height="60.5" as="geometry" />
        </mxCell>
        <mxCell id="34NMFO7QnpSHcD-VDxKC-4" style="edgeStyle=orthogonalEdgeStyle;rounded=0;orthogonalLoop=1;jettySize=auto;html=1;endArrow=none;startFill=0;entryX=0;entryY=0.5;entryDx=0;entryDy=0;exitX=1;exitY=0.5;exitDx=0;exitDy=0;bendable=1;" parent="1" source="RfgUkLckM-XOD2t2Phgp-1" target="34NMFO7QnpSHcD-VDxKC-2" edge="1">
          <mxGeometry relative="1" as="geometry">
            <mxPoint x="-272" y="164" as="targetPoint" />
            <mxPoint x="-320" y="163" as="sourcePoint" />
          </mxGeometry>
        </mxCell>
        <mxCell id="34NMFO7QnpSHcD-VDxKC-6" value="" style="endArrow=none;html=1;rounded=0;" parent="1" source="34NMFO7QnpSHcD-VDxKC-8" target="34NMFO7QnpSHcD-VDxKC-9" edge="1">
          <mxGeometry width="50" height="50" relative="1" as="geometry">
            <mxPoint x="346" y="102" as="sourcePoint" />
            <mxPoint x="349" y="146" as="targetPoint" />
          </mxGeometry>
        </mxCell>
        <mxCell id="34NMFO7QnpSHcD-VDxKC-8" value="&lt;span style=&quot;border-bottom: 1px dotted&quot;&gt;id&lt;/span&gt;" style="ellipse;whiteSpace=wrap;html=1;align=center;" parent="1" vertex="1">
          <mxGeometry x="7.5" y="98" width="44" height="32" as="geometry" />
        </mxCell>
        <mxCell id="34NMFO7QnpSHcD-VDxKC-9" value="class_unit" style="shape=ext;margin=3;double=1;whiteSpace=wrap;html=1;align=center;" parent="1" vertex="1">
          <mxGeometry x="118" y="139" width="116" height="41" as="geometry" />
        </mxCell>
        <mxCell id="34NMFO7QnpSHcD-VDxKC-13" value="N" style="text;html=1;align=center;verticalAlign=middle;whiteSpace=wrap;rounded=0;" parent="1" vertex="1">
          <mxGeometry x="-40" y="158.5" width="30" height="30" as="geometry" />
        </mxCell>
        <mxCell id="34NMFO7QnpSHcD-VDxKC-14" value="N" style="text;html=1;align=center;verticalAlign=middle;whiteSpace=wrap;rounded=0;" parent="1" vertex="1">
          <mxGeometry x="-191" y="158" width="30" height="30" as="geometry" />
        </mxCell>
        <mxCell id="JmAegmkjkGi4BVibfBYT-1" value="" style="shape=link;html=1;rounded=0;exitX=0.5;exitY=1;exitDx=0;exitDy=0;entryX=0.5;entryY=0;entryDx=0;entryDy=0;" parent="1" source="DnB-IcPGnR8jbc4Zhwd8-17" target="DnB-IcPGnR8jbc4Zhwd8-19" edge="1">
          <mxGeometry relative="1" as="geometry">
            <mxPoint x="-500" y="184.38" as="sourcePoint" />
            <mxPoint x="-499.0447470817121" y="232.75" as="targetPoint" />
          </mxGeometry>
        </mxCell>
        <mxCell id="JmAegmkjkGi4BVibfBYT-5" value="" style="shape=link;html=1;rounded=0;exitX=1;exitY=0.5;exitDx=0;exitDy=0;entryX=0;entryY=0.5;entryDx=0;entryDy=0;" parent="1" source="34NMFO7QnpSHcD-VDxKC-2" target="34NMFO7QnpSHcD-VDxKC-9" edge="1">
          <mxGeometry relative="1" as="geometry">
            <mxPoint x="-365" y="198" as="sourcePoint" />
            <mxPoint x="-365" y="248" as="targetPoint" />
          </mxGeometry>
        </mxCell>
        <mxCell id="JmAegmkjkGi4BVibfBYT-6" value="" style="shape=link;html=1;rounded=0;exitX=1;exitY=0.5;exitDx=0;exitDy=0;entryX=0.023;entryY=0.5;entryDx=0;entryDy=0;entryPerimeter=0;" parent="1" source="DnB-IcPGnR8jbc4Zhwd8-30" target="DnB-IcPGnR8jbc4Zhwd8-34" edge="1">
          <mxGeometry relative="1" as="geometry">
            <mxPoint x="-12.75" y="418.5" as="sourcePoint" />
            <mxPoint x="36.5" y="418.5" as="targetPoint" />
          </mxGeometry>
        </mxCell>
        <mxCell id="JmAegmkjkGi4BVibfBYT-8" value="" style="shape=link;html=1;rounded=0;entryX=1;entryY=0.5;entryDx=0;entryDy=0;exitX=0;exitY=0.5;exitDx=0;exitDy=0;" parent="1" source="DnB-IcPGnR8jbc4Zhwd8-25" target="DnB-IcPGnR8jbc4Zhwd8-26" edge="1">
          <mxGeometry relative="1" as="geometry">
            <mxPoint x="631" y="727.25" as="sourcePoint" />
            <mxPoint x="516.5000000000005" y="727.25" as="targetPoint" />
          </mxGeometry>
        </mxCell>
        <mxCell id="JmAegmkjkGi4BVibfBYT-9" value="" style="shape=link;html=1;rounded=0;entryX=1;entryY=0.5;entryDx=0;entryDy=0;exitX=0;exitY=0.5;exitDx=0;exitDy=0;" parent="1" source="DnB-IcPGnR8jbc4Zhwd8-26" target="loU6qst1gXyBOw2LhkFR-83" edge="1">
          <mxGeometry relative="1" as="geometry">
            <mxPoint x="377.0000000000002" y="727.25" as="sourcePoint" />
            <mxPoint x="46" y="801.9099999999999" as="targetPoint" />
          </mxGeometry>
        </mxCell>
        <mxCell id="JmAegmkjkGi4BVibfBYT-10" value="" style="shape=link;html=1;rounded=0;entryX=0.5;entryY=0;entryDx=0;entryDy=0;exitX=0.5;exitY=1;exitDx=0;exitDy=0;edgeStyle=orthogonalEdgeStyle;movable=1;resizable=1;rotatable=1;deletable=1;editable=1;locked=0;connectable=1;" parent="1" source="loU6qst1gXyBOw2LhkFR-66" target="DnB-IcPGnR8jbc4Zhwd8-26" edge="1">
          <mxGeometry relative="1" as="geometry">
            <mxPoint x="462" y="621" as="sourcePoint" />
            <mxPoint x="446.75" y="712.25" as="targetPoint" />
          </mxGeometry>
        </mxCell>
        <mxCell id="JmAegmkjkGi4BVibfBYT-12" value="" style="endArrow=none;html=1;rounded=0;entryX=1;entryY=0.5;entryDx=0;entryDy=0;edgeStyle=orthogonalEdgeStyle;exitX=0;exitY=0.5;exitDx=0;exitDy=0;" parent="1" source="RfgUkLckM-XOD2t2Phgp-3" target="DnB-IcPGnR8jbc4Zhwd8-25" edge="1">
          <mxGeometry width="50" height="50" relative="1" as="geometry">
            <mxPoint x="772" y="704.25" as="sourcePoint" />
            <mxPoint x="721" y="727.25" as="targetPoint" />
          </mxGeometry>
        </mxCell>
        <mxCell id="JmAegmkjkGi4BVibfBYT-14" value="" style="shape=link;html=1;rounded=0;entryX=1;entryY=0.5;entryDx=0;entryDy=0;exitX=0;exitY=0.5;exitDx=0;exitDy=0;" parent="1" source="DnB-IcPGnR8jbc4Zhwd8-8" target="DnB-IcPGnR8jbc4Zhwd8-9" edge="1">
          <mxGeometry relative="1" as="geometry">
            <mxPoint x="979" y="211" as="sourcePoint" />
            <mxPoint x="915.5" y="212" as="targetPoint" />
          </mxGeometry>
        </mxCell>
        <mxCell id="JmAegmkjkGi4BVibfBYT-15" value="" style="shape=link;html=1;rounded=0;exitX=0;exitY=0.5;exitDx=0;exitDy=0;entryX=1;entryY=0.5;entryDx=0;entryDy=0;" parent="1" source="DnB-IcPGnR8jbc4Zhwd8-7" target="DnB-IcPGnR8jbc4Zhwd8-6" edge="1">
          <mxGeometry relative="1" as="geometry">
            <mxPoint x="714" y="212" as="sourcePoint" />
            <mxPoint x="696" y="185" as="targetPoint" />
          </mxGeometry>
        </mxCell>
        <mxCell id="JmAegmkjkGi4BVibfBYT-16" value="" style="shape=link;html=1;rounded=0;entryX=1;entryY=0.5;entryDx=0;entryDy=0;exitX=0;exitY=0.5;exitDx=0;exitDy=0;" parent="1" source="DnB-IcPGnR8jbc4Zhwd8-23" target="DnB-IcPGnR8jbc4Zhwd8-22" edge="1">
          <mxGeometry relative="1" as="geometry">
            <mxPoint x="952" y="412.68999999999994" as="sourcePoint" />
            <mxPoint x="897.5" y="412.68999999999994" as="targetPoint" />
          </mxGeometry>
        </mxCell>
        <mxCell id="S6V5yhRo8JijAU2IWsGi-3" value="duration" style="ellipse;whiteSpace=wrap;html=1;" parent="1" vertex="1">
          <mxGeometry x="589" y="653" width="69" height="35" as="geometry" />
        </mxCell>
        <mxCell id="S6V5yhRo8JijAU2IWsGi-4" value="" style="endArrow=none;html=1;rounded=0;" parent="1" source="S6V5yhRo8JijAU2IWsGi-3" target="DnB-IcPGnR8jbc4Zhwd8-26" edge="1">
          <mxGeometry width="50" height="50" relative="1" as="geometry">
            <mxPoint x="555" y="694.25" as="sourcePoint" />
            <mxPoint x="493.4680616740088" y="712.25" as="targetPoint" />
          </mxGeometry>
        </mxCell>
        <mxCell id="S6V5yhRo8JijAU2IWsGi-8" value="" style="endArrow=none;html=1;rounded=0;entryX=1;entryY=0.5;entryDx=0;entryDy=0;exitX=0.5;exitY=1;exitDx=0;exitDy=0;" parent="1" source="xcnXYv3SaFBbOcyUdqIz-6" target="DnB-IcPGnR8jbc4Zhwd8-32" edge="1">
          <mxGeometry width="50" height="50" relative="1" as="geometry">
            <mxPoint x="868" y="427.69" as="sourcePoint" />
            <mxPoint x="775.2500000000005" y="506.375" as="targetPoint" />
            <Array as="points">
              <mxPoint x="790" y="470" />
              <mxPoint x="790" y="512" />
            </Array>
          </mxGeometry>
        </mxCell>
        <mxCell id="vkLdFg2dgFDLmTg8ppV9-1" value="days" style="ellipse;whiteSpace=wrap;html=1;" parent="1" vertex="1">
          <mxGeometry x="1111" y="448.19" width="48" height="25.31" as="geometry" />
        </mxCell>
        <mxCell id="vkLdFg2dgFDLmTg8ppV9-2" value="" style="endArrow=none;html=1;rounded=0;" parent="1" source="vkLdFg2dgFDLmTg8ppV9-1" target="DnB-IcPGnR8jbc4Zhwd8-23" edge="1">
          <mxGeometry width="50" height="50" relative="1" as="geometry">
            <mxPoint x="991" y="364.69" as="sourcePoint" />
            <mxPoint x="1058.0110294117649" y="430.18999999999994" as="targetPoint" />
          </mxGeometry>
        </mxCell>
        <mxCell id="vkLdFg2dgFDLmTg8ppV9-4" value="days" style="ellipse;whiteSpace=wrap;html=1;" parent="1" vertex="1">
          <mxGeometry x="-671.5" y="194" width="53" height="30" as="geometry" />
        </mxCell>
        <mxCell id="vkLdFg2dgFDLmTg8ppV9-5" value="" style="endArrow=none;html=1;rounded=0;" parent="1" source="vkLdFg2dgFDLmTg8ppV9-4" target="DnB-IcPGnR8jbc4Zhwd8-19" edge="1">
          <mxGeometry width="50" height="50" relative="1" as="geometry">
            <mxPoint x="-454" y="337" as="sourcePoint" />
            <mxPoint x="-557.9827586206898" y="232.75" as="targetPoint" />
          </mxGeometry>
        </mxCell>
        <mxCell id="5OBtpOrzZ91cLJ5HXCoG-1" value="1" style="text;html=1;align=center;verticalAlign=middle;whiteSpace=wrap;rounded=0;" parent="1" vertex="1">
          <mxGeometry x="88" y="51" width="30" height="30" as="geometry" />
        </mxCell>
        <mxCell id="5OBtpOrzZ91cLJ5HXCoG-2" value="N" style="text;html=1;align=center;verticalAlign=middle;whiteSpace=wrap;rounded=0;" parent="1" vertex="1">
          <mxGeometry x="234" y="55" width="30" height="30" as="geometry" />
        </mxCell>
        <mxCell id="5OBtpOrzZ91cLJ5HXCoG-5" value="parent_class" style="shape=rhombus;perimeter=rhombusPerimeter;whiteSpace=wrap;html=1;align=center;" parent="1" vertex="1">
          <mxGeometry x="114.37" y="29.310000000000002" width="123.25" height="63.37" as="geometry" />
        </mxCell>
        <mxCell id="5OBtpOrzZ91cLJ5HXCoG-6" value="" style="endArrow=none;html=1;rounded=0;exitX=0;exitY=0.5;exitDx=0;exitDy=0;" parent="1" source="5OBtpOrzZ91cLJ5HXCoG-5" target="34NMFO7QnpSHcD-VDxKC-9" edge="1">
          <mxGeometry width="50" height="50" relative="1" as="geometry">
            <mxPoint x="-248" y="231" as="sourcePoint" />
            <mxPoint x="-89" y="261" as="targetPoint" />
          </mxGeometry>
        </mxCell>
        <mxCell id="5OBtpOrzZ91cLJ5HXCoG-7" value="" style="endArrow=none;html=1;rounded=0;exitX=1;exitY=0.5;exitDx=0;exitDy=0;" parent="1" source="5OBtpOrzZ91cLJ5HXCoG-5" target="34NMFO7QnpSHcD-VDxKC-9" edge="1">
          <mxGeometry width="50" height="50" relative="1" as="geometry">
            <mxPoint x="-238" y="241" as="sourcePoint" />
            <mxPoint x="-154" y="187" as="targetPoint" />
          </mxGeometry>
        </mxCell>
        <mxCell id="z5VyCaV0rGjMML77XVD9-1" value="scheduled_lesson_teacher" style="shape=rhombus;perimeter=rhombusPerimeter;whiteSpace=wrap;html=1;align=center;" parent="1" vertex="1">
          <mxGeometry x="-466" y="393.30999999999995" width="196" height="85.25" as="geometry" />
        </mxCell>
        <mxCell id="z5VyCaV0rGjMML77XVD9-2" value="" style="shape=link;html=1;rounded=0;entryX=0.5;entryY=1;entryDx=0;entryDy=0;exitX=0.5;exitY=1;exitDx=0;exitDy=0;edgeStyle=orthogonalEdgeStyle;" parent="1" source="z5VyCaV0rGjMML77XVD9-1" target="DnB-IcPGnR8jbc4Zhwd8-26" edge="1">
          <mxGeometry relative="1" as="geometry">
            <mxPoint x="-34" y="676" as="sourcePoint" />
            <mxPoint x="446.75" y="742.25" as="targetPoint" />
            <Array as="points">
              <mxPoint x="-368" y="784" />
              <mxPoint x="447" y="784" />
            </Array>
          </mxGeometry>
        </mxCell>
        <mxCell id="z5VyCaV0rGjMML77XVD9-3" value="N" style="text;html=1;align=center;verticalAlign=middle;whiteSpace=wrap;rounded=0;" parent="1" vertex="1">
          <mxGeometry x="-371" y="363.31000000000006" width="30" height="30" as="geometry" />
        </mxCell>
        <mxCell id="z5VyCaV0rGjMML77XVD9-4" style="edgeStyle=orthogonalEdgeStyle;rounded=0;orthogonalLoop=1;jettySize=auto;html=1;endArrow=none;startFill=0;exitX=0.5;exitY=1;exitDx=0;exitDy=0;entryX=0.5;entryY=0;entryDx=0;entryDy=0;" parent="1" source="RfgUkLckM-XOD2t2Phgp-1" target="z5VyCaV0rGjMML77XVD9-1" edge="1">
          <mxGeometry relative="1" as="geometry">
            <mxPoint x="-307" y="431.69" as="sourcePoint" />
            <mxPoint x="-403" y="566.69" as="targetPoint" />
          </mxGeometry>
        </mxCell>
        <mxCell id="z5VyCaV0rGjMML77XVD9-5" value="N" style="text;html=1;align=center;verticalAlign=middle;whiteSpace=wrap;rounded=0;" parent="1" vertex="1">
          <mxGeometry x="-364" y="478.56000000000006" width="30" height="30" as="geometry" />
        </mxCell>
        <mxCell id="DnB-IcPGnR8jbc4Zhwd8-2" value="program" style="ellipse;whiteSpace=wrap;html=1;" parent="1" vertex="1">
          <mxGeometry x="938" y="668" width="71" height="32.25" as="geometry" />
        </mxCell>
        <mxCell id="DnB-IcPGnR8jbc4Zhwd8-3" value="" style="endArrow=none;html=1;rounded=0;" parent="1" source="RfgUkLckM-XOD2t2Phgp-3" target="DnB-IcPGnR8jbc4Zhwd8-2" edge="1">
          <mxGeometry width="50" height="50" relative="1" as="geometry">
            <mxPoint x="944" y="575" as="sourcePoint" />
            <mxPoint x="881" y="688" as="targetPoint" />
          </mxGeometry>
        </mxCell>
        <mxCell id="DnB-IcPGnR8jbc4Zhwd8-5" value="has" style="shape=rhombus;double=1;perimeter=rhombusPerimeter;whiteSpace=wrap;html=1;align=center;" parent="1" vertex="1">
          <mxGeometry x="389.75" y="186" width="86" height="54" as="geometry" />
        </mxCell>
        <mxCell id="DnB-IcPGnR8jbc4Zhwd8-6" value="subpart" style="shape=ext;margin=3;double=1;whiteSpace=wrap;html=1;align=center;" parent="1" vertex="1">
          <mxGeometry x="557" y="194" width="82" height="38" as="geometry" />
        </mxCell>
        <mxCell id="DnB-IcPGnR8jbc4Zhwd8-7" value="has" style="shape=rhombus;double=1;perimeter=rhombusPerimeter;whiteSpace=wrap;html=1;align=center;" parent="1" vertex="1">
          <mxGeometry x="715" y="185" width="86" height="54" as="geometry" />
        </mxCell>
        <mxCell id="DnB-IcPGnR8jbc4Zhwd8-8" value="has" style="shape=rhombus;double=1;perimeter=rhombusPerimeter;whiteSpace=wrap;html=1;align=center;" parent="1" vertex="1">
          <mxGeometry x="980" y="184" width="86" height="54" as="geometry" />
        </mxCell>
        <mxCell id="DnB-IcPGnR8jbc4Zhwd8-9" value="config" style="shape=ext;margin=3;double=1;whiteSpace=wrap;html=1;align=center;" parent="1" vertex="1">
          <mxGeometry x="847" y="194.5" width="75.5" height="34" as="geometry" />
        </mxCell>
        <mxCell id="DnB-IcPGnR8jbc4Zhwd8-11" value="&lt;span style=&quot;border-bottom: 1px dotted&quot;&gt;id&lt;/span&gt;" style="ellipse;whiteSpace=wrap;html=1;align=center;" parent="1" vertex="1">
          <mxGeometry x="607" y="148" width="42" height="27" as="geometry" />
        </mxCell>
        <mxCell id="DnB-IcPGnR8jbc4Zhwd8-12" value="&lt;span style=&quot;border-bottom: 1px dotted&quot;&gt;id&lt;/span&gt;" style="ellipse;whiteSpace=wrap;html=1;align=center;" parent="1" vertex="1">
          <mxGeometry x="906" y="139" width="41" height="29" as="geometry" />
        </mxCell>
        <mxCell id="DnB-IcPGnR8jbc4Zhwd8-17" value="has" style="shape=rhombus;double=1;perimeter=rhombusPerimeter;whiteSpace=wrap;html=1;align=center;" parent="1" vertex="1">
          <mxGeometry x="-543.5" y="132" width="86" height="54" as="geometry" />
        </mxCell>
        <mxCell id="DnB-IcPGnR8jbc4Zhwd8-19" value="teacher_unavailability" style="shape=ext;margin=3;double=1;whiteSpace=wrap;html=1;align=center;" parent="1" vertex="1">
          <mxGeometry x="-575.5" y="225" width="150" height="41" as="geometry" />
        </mxCell>
        <mxCell id="DnB-IcPGnR8jbc4Zhwd8-20" value="&lt;span style=&quot;border-bottom: 1px dotted&quot;&gt;id&lt;/span&gt;" style="ellipse;whiteSpace=wrap;html=1;align=center;" parent="1" vertex="1">
          <mxGeometry x="-680" y="240" width="44" height="32" as="geometry" />
        </mxCell>
        <mxCell id="DnB-IcPGnR8jbc4Zhwd8-22" value="has" style="shape=rhombus;double=1;perimeter=rhombusPerimeter;whiteSpace=wrap;html=1;align=center;" parent="1" vertex="1">
          <mxGeometry x="811" y="385.69" width="86" height="54" as="geometry" />
        </mxCell>
        <mxCell id="DnB-IcPGnR8jbc4Zhwd8-23" value="room_unavailability" style="shape=ext;margin=3;double=1;whiteSpace=wrap;html=1;align=center;" parent="1" vertex="1">
          <mxGeometry x="954" y="395.69" width="124.5" height="34" as="geometry" />
        </mxCell>
        <mxCell id="DnB-IcPGnR8jbc4Zhwd8-24" value="&lt;span style=&quot;border-bottom: 1px dotted&quot;&gt;id&lt;/span&gt;" style="ellipse;whiteSpace=wrap;html=1;align=center;" parent="1" vertex="1">
          <mxGeometry x="936" y="326" width="38" height="29" as="geometry" />
        </mxCell>
        <mxCell id="DnB-IcPGnR8jbc4Zhwd8-25" value="has" style="shape=rhombus;double=1;perimeter=rhombusPerimeter;whiteSpace=wrap;html=1;align=center;" parent="1" vertex="1">
          <mxGeometry x="635" y="700.25" width="86" height="54" as="geometry" />
        </mxCell>
        <mxCell id="DnB-IcPGnR8jbc4Zhwd8-26" value="scheduled_lesson" style="shape=ext;margin=3;double=1;whiteSpace=wrap;html=1;align=center;" parent="1" vertex="1">
          <mxGeometry x="384.75" y="710" width="124.5" height="34" as="geometry" />
        </mxCell>
        <mxCell id="DnB-IcPGnR8jbc4Zhwd8-27" value="&lt;span style=&quot;border-bottom: 1px dotted&quot;&gt;id&lt;/span&gt;" style="ellipse;whiteSpace=wrap;html=1;align=center;" parent="1" vertex="1">
          <mxGeometry x="297.5" y="656" width="38" height="29" as="geometry" />
        </mxCell>
        <mxCell id="DnB-IcPGnR8jbc4Zhwd8-28" value="&lt;span style=&quot;border-bottom: 1px dotted&quot;&gt;id&lt;/span&gt;" style="ellipse;whiteSpace=wrap;html=1;align=center;" parent="1" vertex="1">
          <mxGeometry x="-20" y="319.00000000000006" width="38" height="29" as="geometry" />
        </mxCell>
        <mxCell id="DnB-IcPGnR8jbc4Zhwd8-29" value="" style="endArrow=none;html=1;rounded=0;" parent="1" source="DnB-IcPGnR8jbc4Zhwd8-28" target="DnB-IcPGnR8jbc4Zhwd8-30" edge="1">
          <mxGeometry width="50" height="50" relative="1" as="geometry">
            <mxPoint x="-118.37" y="476.19000000000005" as="sourcePoint" />
            <mxPoint x="-116.71933467389385" y="437.9999999999999" as="targetPoint" />
          </mxGeometry>
        </mxCell>
        <mxCell id="DnB-IcPGnR8jbc4Zhwd8-30" value="class_time" style="shape=ext;margin=3;double=1;whiteSpace=wrap;html=1;align=center;" parent="1" vertex="1">
          <mxGeometry x="-125" y="390.84000000000003" width="101" height="31.31" as="geometry" />
        </mxCell>
        <mxCell id="DnB-IcPGnR8jbc4Zhwd8-31" value="class_restriction" style="shape=associativeEntity;whiteSpace=wrap;html=1;align=center;" parent="1" vertex="1">
          <mxGeometry x="362.75" y="85" width="140" height="60" as="geometry" />
        </mxCell>
        <mxCell id="DnB-IcPGnR8jbc4Zhwd8-32" value="room_distance" style="shape=associativeEntity;whiteSpace=wrap;html=1;align=center;" parent="1" vertex="1">
          <mxGeometry x="661" y="479" width="108" height="66.5" as="geometry" />
        </mxCell>
        <mxCell id="DnB-IcPGnR8jbc4Zhwd8-33" value="class_room" style="shape=associativeEntity;whiteSpace=wrap;html=1;align=center;" parent="1" vertex="1">
          <mxGeometry x="302.5" y="375.85" width="92.5" height="58.84" as="geometry" />
        </mxCell>
        <mxCell id="DnB-IcPGnR8jbc4Zhwd8-34" value="has" style="shape=rhombus;double=1;perimeter=rhombusPerimeter;whiteSpace=wrap;html=1;align=center;" parent="1" vertex="1">
          <mxGeometry x="36.00000000000001" y="379.5" width="86" height="54" as="geometry" />
        </mxCell>
        <mxCell id="XdK0PZLEbcIDQs-pu9hC-1" value="name" style="ellipse;whiteSpace=wrap;html=1;" vertex="1" parent="1">
          <mxGeometry x="4" y="54" width="68" height="31" as="geometry" />
        </mxCell>
        <mxCell id="XdK0PZLEbcIDQs-pu9hC-2" value="" style="endArrow=none;html=1;rounded=0;" edge="1" parent="1" source="XdK0PZLEbcIDQs-pu9hC-1" target="34NMFO7QnpSHcD-VDxKC-9">
          <mxGeometry width="50" height="50" relative="1" as="geometry">
            <mxPoint x="72" y="126" as="sourcePoint" />
            <mxPoint x="132" y="149" as="targetPoint" />
          </mxGeometry>
        </mxCell>
        <mxCell id="XdK0PZLEbcIDQs-pu9hC-3" value="name" style="ellipse;whiteSpace=wrap;html=1;" vertex="1" parent="1">
          <mxGeometry x="532" y="146.5" width="68" height="31" as="geometry" />
        </mxCell>
        <mxCell id="XdK0PZLEbcIDQs-pu9hC-4" value="name" style="ellipse;whiteSpace=wrap;html=1;" vertex="1" parent="1">
          <mxGeometry x="805" y="143.38" width="68" height="31" as="geometry" />
        </mxCell>
        <mxCell id="XdK0PZLEbcIDQs-pu9hC-5" value="name" style="ellipse;whiteSpace=wrap;html=1;" vertex="1" parent="1">
          <mxGeometry x="1093" y="132" width="68" height="31" as="geometry" />
        </mxCell>
        <mxCell id="XdK0PZLEbcIDQs-pu9hC-6" value="" style="endArrow=none;html=1;rounded=0;" edge="1" parent="1" source="XdK0PZLEbcIDQs-pu9hC-5" target="bcXNtD89giMIb3jXFdts-1">
          <mxGeometry width="50" height="50" relative="1" as="geometry">
            <mxPoint x="1210" y="185" as="sourcePoint" />
            <mxPoint x="1183" y="208" as="targetPoint" />
          </mxGeometry>
        </mxCell>
        <mxCell id="XdK0PZLEbcIDQs-pu9hC-7" value="" style="endArrow=none;html=1;rounded=0;" edge="1" parent="1" source="XdK0PZLEbcIDQs-pu9hC-4" target="DnB-IcPGnR8jbc4Zhwd8-9">
          <mxGeometry width="50" height="50" relative="1" as="geometry">
            <mxPoint x="1144" y="173" as="sourcePoint" />
            <mxPoint x="1160" y="208" as="targetPoint" />
          </mxGeometry>
        </mxCell>
        <mxCell id="XdK0PZLEbcIDQs-pu9hC-8" value="" style="endArrow=none;html=1;rounded=0;" edge="1" parent="1" source="XdK0PZLEbcIDQs-pu9hC-3" target="DnB-IcPGnR8jbc4Zhwd8-6">
          <mxGeometry width="50" height="50" relative="1" as="geometry">
            <mxPoint x="862" y="183" as="sourcePoint" />
            <mxPoint x="880" y="205" as="targetPoint" />
          </mxGeometry>
        </mxCell>
        <mxCell id="XdK0PZLEbcIDQs-pu9hC-10" value="&lt;u&gt;id&lt;/u&gt;" style="ellipse;whiteSpace=wrap;html=1;" vertex="1" parent="1">
          <mxGeometry x="725.5" y="571.5" width="41.5" height="30" as="geometry" />
        </mxCell>
        <mxCell id="XdK0PZLEbcIDQs-pu9hC-12" value="" style="endArrow=none;html=1;rounded=0;" edge="1" parent="1" source="DnB-IcPGnR8jbc4Zhwd8-32" target="XdK0PZLEbcIDQs-pu9hC-10">
          <mxGeometry width="50" height="50" relative="1" as="geometry">
            <mxPoint x="439" y="348" as="sourcePoint" />
            <mxPoint x="394" y="386" as="targetPoint" />
          </mxGeometry>
        </mxCell>
      </root>
    </mxGraphModel>
  </diagram>
</mxfile>
